<?xml version="1.0" encoding="UTF-8"?>
<!DOCTYPE svg PUBLIC "-//W3C//DTD SVG 1.1//EN" "http://www.w3.org/Graphics/SVG/1.1/DTD/svg11.dtd">
<svg xmlns="http://www.w3.org/2000/svg" version="1.1" width="343px" height="343px" style="shape-rendering:geometricPrecision; text-rendering:geometricPrecision; image-rendering:optimizeQuality; fill-rule:evenodd; clip-rule:evenodd" xmlns:xlink="http://www.w3.org/1999/xlink">
<g><path style="opacity:0.893" fill="#4c0453" d="M 236.5,22.5 C 222.833,22.5 209.167,22.5 195.5,22.5C 202.103,21.0057 208.936,20.339 216,20.5C 223.064,20.339 229.897,21.0057 236.5,22.5 Z"/></g>
<g><path style="opacity:0.994" fill="#2c0330" d="M 195.5,22.5 C 209.167,22.5 222.833,22.5 236.5,22.5C 275.09,30.9165 301.59,53.5832 316,90.5C 317.642,95.4023 318.809,100.402 319.5,105.5C 319.5,119.167 319.5,132.833 319.5,146.5C 319.435,149.428 318.768,152.095 317.5,154.5C 316.18,94.3782 287.513,53.2116 231.5,31C 216.274,26.5218 200.941,24.3552 185.5,24.5C 188.698,23.2132 192.031,22.5465 195.5,22.5 Z"/></g>
<g><path style="opacity:0.989" fill="#300334" d="M 185.5,24.5 C 200.941,24.3552 216.274,26.5218 231.5,31C 287.513,53.2116 316.18,94.3782 317.5,154.5C 314.928,166.641 309.928,177.641 302.5,187.5C 301.903,187.265 301.57,186.765 301.5,186C 316.8,131.23 301.8,86.8963 256.5,53C 223.672,32.7545 189.006,28.9212 152.5,41.5C 162.175,33.4945 173.175,27.8278 185.5,24.5 Z"/></g>
<g><path style="opacity:0.994" fill="#36033b" d="M 302.5,187.5 C 299.514,191.817 296.18,195.817 292.5,199.5C 291.957,199.44 291.624,199.107 291.5,198.5C 311.36,153.731 305.86,112.398 275,74.5C 248.028,46.508 215.194,35.008 176.5,40C 164.87,42.268 153.536,45.4347 142.5,49.5C 145.52,46.4838 148.854,43.8171 152.5,41.5C 189.006,28.9212 223.672,32.7545 256.5,53C 301.8,86.8963 316.8,131.23 301.5,186C 301.57,186.765 301.903,187.265 302.5,187.5 Z"/></g>
<g><path style="opacity:0.993" fill="#3b0341" d="M 292.5,199.5 C 289.208,202.49 285.874,205.49 282.5,208.5C 285.36,201.776 288.527,195.109 292,188.5C 308.537,138.464 296.704,96.6305 256.5,63C 224.45,41.089 190.116,36.7557 153.5,50C 146.447,53.5266 139.447,57.0266 132.5,60.5C 135.862,56.8075 139.195,53.1408 142.5,49.5C 153.536,45.4347 164.87,42.268 176.5,40C 215.194,35.008 248.028,46.508 275,74.5C 305.86,112.398 311.36,153.731 291.5,198.5C 291.624,199.107 291.957,199.44 292.5,199.5 Z"/></g>
<g><path style="opacity:0.995" fill="#410347" d="M 282.5,208.5 C 279.554,211.313 276.221,213.646 272.5,215.5C 298.765,179.505 302.598,141.171 284,100.5C 260.841,61.1681 226.341,43.3347 180.5,47C 170.442,48.2644 160.775,50.931 151.5,55C 142.784,59.3517 134.451,64.185 126.5,69.5C 128.252,66.328 130.252,63.328 132.5,60.5C 139.447,57.0266 146.447,53.5266 153.5,50C 190.116,36.7557 224.45,41.089 256.5,63C 296.704,96.6305 308.537,138.464 292,188.5C 288.527,195.109 285.36,201.776 282.5,208.5 Z"/></g>
<g><path style="opacity:0.994" fill="#47034e" d="M 272.5,215.5 C 268.653,218.593 264.32,220.926 259.5,222.5C 264.476,216.683 269.309,210.683 274,204.5C 298.488,164.047 296.821,124.714 269,86.5C 235.121,50.4071 195.288,41.9071 149.5,61C 138.318,66.6807 128.485,74.1807 120,83.5C 119.601,83.2716 119.435,82.9382 119.5,82.5C 121.074,77.6805 123.407,73.3472 126.5,69.5C 134.451,64.185 142.784,59.3517 151.5,55C 160.775,50.931 170.442,48.2644 180.5,47C 226.341,43.3347 260.841,61.1681 284,100.5C 302.598,141.171 298.765,179.505 272.5,215.5 Z"/></g>
<g><path style="opacity:0.994" fill="#4d0454" d="M 259.5,222.5 C 253.728,225.206 247.728,227.539 241.5,229.5C 237.742,229.848 234.076,230.515 230.5,231.5C 230.5,231.167 230.5,230.833 230.5,230.5C 230.198,227.941 230.532,225.607 231.5,223.5C 234.875,224.398 237.375,223.064 239,219.5C 241.715,169.594 220.881,133.427 176.5,111C 159.547,103.675 141.88,101.008 123.5,103C 119.577,104.702 116.91,107.536 115.5,111.5C 114.167,111.5 112.833,111.5 111.5,111.5C 111.167,111.5 110.833,111.5 110.5,111.5C 111.485,107.924 112.152,104.258 112.5,100.5C 114.461,94.2719 116.794,88.2719 119.5,82.5C 119.435,82.9382 119.601,83.2716 120,83.5C 128.485,74.1807 138.318,66.6807 149.5,61C 195.288,41.9071 235.121,50.4071 269,86.5C 296.821,124.714 298.488,164.047 274,204.5C 269.309,210.683 264.476,216.683 259.5,222.5 Z"/></g>
<g><path style="opacity:1" fill="#53055b" d="M 191.5,55.5 C 236.495,57.3474 266.662,79.3474 282,121.5C 290.563,153.9 284.563,183.233 264,209.5C 258.761,215.41 252.928,220.577 246.5,225C 244.833,225.667 243.167,225.667 241.5,225C 246.949,185.018 234.616,151.351 204.5,124C 180.425,104.643 152.925,96.143 122,98.5C 120.128,99.0682 118.295,99.7349 116.5,100.5C 115.692,100.192 115.025,99.6924 114.5,99C 133.088,72.0376 158.755,57.5376 191.5,55.5 Z"/></g>
<g><path style="opacity:1" fill="#55055e" d="M 187.5,67.5 C 226.208,67.0862 253.375,84.4196 269,119.5C 279.997,155.201 271.997,185.867 245,211.5C 246.691,169.382 230.191,136.549 195.5,113C 175.726,100.077 154.06,94.744 130.5,97C 145.723,79.7226 164.723,69.8893 187.5,67.5 Z"/></g>
<g><path style="opacity:0.005" fill="#000000" d="M 112.5,100.5 C 112.152,104.258 111.485,107.924 110.5,111.5C 110.167,111.5 109.833,111.5 109.5,111.5C 109.432,107.43 110.432,103.763 112.5,100.5 Z"/></g>
<g><path style="opacity:0.908" fill="#4c0453" d="M 319.5,105.5 C 320.994,112.103 321.661,118.936 321.5,126C 321.661,133.064 320.994,139.897 319.5,146.5C 319.5,132.833 319.5,119.167 319.5,105.5 Z"/></g>
<g><path style="opacity:1" fill="#2f0333" d="M 231.5,219.5 C 231.85,200.559 227.517,182.892 218.5,166.5C 197.044,128.757 164.377,110.091 120.5,110.5C 121.025,107.144 123.025,105.311 126.5,105C 176.036,103.989 210.202,126.156 229,171.5C 234.587,186.022 236.587,201.022 235,216.5C 234.578,218.426 233.411,219.426 231.5,219.5 Z"/></g>
<g><path style="opacity:1" fill="#3d0342" d="M 231.5,223.5 C 231.5,222.167 231.5,220.833 231.5,219.5C 233.411,219.426 234.578,218.426 235,216.5C 236.587,201.022 234.587,186.022 229,171.5C 210.202,126.156 176.036,103.989 126.5,105C 123.025,105.311 121.025,107.144 120.5,110.5C 118.883,111.038 117.216,111.371 115.5,111.5C 116.91,107.536 119.577,104.702 123.5,103C 141.88,101.008 159.547,103.675 176.5,111C 220.881,133.427 241.715,169.594 239,219.5C 237.375,223.064 234.875,224.398 231.5,223.5 Z"/></g>
<g><path style="opacity:1" fill="#620533" d="M 120.5,110.5 C 164.377,110.091 197.044,128.757 218.5,166.5C 215.209,161.873 211.542,157.54 207.5,153.5C 203.865,148.477 199.865,143.643 195.5,139C 179.529,126.774 161.529,118.774 141.5,115C 128.255,112.167 119.422,117 115,129.5C 115.202,149.776 120.869,168.443 132,185.5C 136.856,193.697 143.19,200.697 151,206.5C 151.483,207.448 151.649,208.448 151.5,209.5C 121.556,184.726 107.889,152.726 110.5,113.5C 111.338,113.158 111.672,112.492 111.5,111.5C 112.833,111.5 114.167,111.5 115.5,111.5C 117.216,111.371 118.883,111.038 120.5,110.5 Z"/></g>
<g><path style="opacity:0.995" fill="#084ad3" d="M 109.5,111.5 C 109.833,111.5 110.167,111.5 110.5,111.5C 110.833,111.5 111.167,111.5 111.5,111.5C 111.672,112.492 111.338,113.158 110.5,113.5C 89.8821,122.619 75.0487,137.619 66,158.5C 53.7886,192.699 58.7886,224.033 81,252.5C 110.133,281.656 144.3,289.489 183.5,276C 203.668,266.832 219.001,252.499 229.5,233C 227.75,231.681 225.75,231.181 223.5,231.5C 225.607,230.532 227.941,230.198 230.5,230.5C 230.5,230.833 230.5,231.167 230.5,231.5C 230.5,231.833 230.5,232.167 230.5,232.5C 229.905,239.219 228.238,245.552 225.5,251.5C 220.39,256.097 215.057,261.264 209.5,267C 179.456,289.578 146.789,294.244 111.5,281C 70.911,261.345 51.7444,228.845 54,183.5C 57.4064,154.98 70.5731,132.313 93.5,115.5C 98.4968,113.251 103.83,111.917 109.5,111.5 Z"/></g>
<g><path style="opacity:1" fill="#0a4fe2" d="M 110.5,113.5 C 107.889,152.726 121.556,184.726 151.5,209.5C 161.278,216.724 171.945,222.391 183.5,226.5C 196.525,230.295 209.858,231.961 223.5,231.5C 225.75,231.181 227.75,231.681 229.5,233C 219.001,252.499 203.668,266.832 183.5,276C 144.3,289.489 110.133,281.656 81,252.5C 58.7886,224.033 53.7886,192.699 66,158.5C 75.0487,137.619 89.8821,122.619 110.5,113.5 Z"/></g>
<g><path style="opacity:1" fill="#7c073f" d="M 207.5,153.5 C 211.542,157.54 215.209,161.873 218.5,166.5C 227.517,182.892 231.85,200.559 231.5,219.5C 231.5,220.833 231.5,222.167 231.5,223.5C 230.532,225.607 230.198,227.941 230.5,230.5C 227.941,230.198 225.607,230.532 223.5,231.5C 209.858,231.961 196.525,230.295 183.5,226.5C 181.266,223.702 178.266,221.869 174.5,221C 146.422,204.685 128.089,180.852 119.5,149.5C 113.167,123.167 123.167,113.167 149.5,119.5C 157.192,122.062 164.859,124.728 172.5,127.5C 178.331,131.583 184.331,135.416 190.5,139C 196.039,144.044 201.706,148.877 207.5,153.5 Z"/></g>
<g><path style="opacity:0.995" fill="#073fb5" d="M 74.5,123.5 C 74.9382,123.435 75.2716,123.601 75.5,124C 47.2714,156.532 40.7714,193.032 56,233.5C 74.8185,272.442 105.985,292.776 149.5,294.5C 169.788,293.793 188.454,287.959 205.5,277C 210.047,273.239 214.714,269.739 219.5,266.5C 217.833,269.167 216.167,271.833 214.5,274.5C 213.448,274.351 212.448,274.517 211.5,275C 205.894,280.813 199.227,285.147 191.5,288C 183.802,289.873 176.136,291.873 168.5,294C 129.101,301.867 95.934,290.7 69,260.5C 68.6667,259.167 68.3333,257.833 68,256.5C 55.6025,243.364 48.2692,227.697 46,209.5C 41.681,177.692 49.5143,150.025 69.5,126.5C 70.9649,125.263 72.6316,124.263 74.5,123.5 Z"/></g>
<g><path style="opacity:0.992" fill="#06369c" d="M 57.5,135.5 C 38.7051,168.235 36.5384,202.568 51,238.5C 77.7943,286.812 118.628,306.645 173.5,298C 185.475,294.508 196.808,289.675 207.5,283.5C 204.959,287.252 201.959,290.585 198.5,293.5C 198.44,292.957 198.107,292.624 197.5,292.5C 155.138,311.029 115.471,306.529 78.5,279C 37.0865,239.828 27.7532,193.995 50.5,141.5C 52.2344,138.8 54.5677,136.8 57.5,135.5 Z"/></g>
<g><path style="opacity:0.99" fill="#05328e" d="M 50.5,141.5 C 27.7532,193.995 37.0865,239.828 78.5,279C 115.471,306.529 155.138,311.029 197.5,292.5C 198.107,292.624 198.44,292.957 198.5,293.5C 195.455,296.547 192.122,299.213 188.5,301.5C 132.845,317.337 87.6779,302.337 53,256.5C 33.1136,224.126 28.947,189.793 40.5,153.5C 43.4864,149.183 46.8197,145.183 50.5,141.5 Z"/></g>
<g><path style="opacity:0.992" fill="#052d82" d="M 40.5,153.5 C 28.947,189.793 33.1136,224.126 53,256.5C 87.6779,302.337 132.845,317.337 188.5,301.5C 182.666,305.921 176.332,309.588 169.5,312.5C 116.247,318.457 74.7467,299.124 45,254.5C 30.8474,228.917 25.6807,201.917 29.5,173.5C 32.1354,166.226 35.8021,159.559 40.5,153.5 Z"/></g>
<g><path style="opacity:1" fill="#8f0747" d="M 131.5,120.5 C 187.688,126.019 220.354,156.686 229.5,212.5C 229.167,223.5 223.5,229.167 212.5,229.5C 161.642,221.806 131.142,192.806 121,142.5C 118.517,132.041 122.017,124.707 131.5,120.5 Z"/></g>
<g><path style="opacity:1" fill="#9d084e" d="M 133.5,124.5 C 176.808,128.4 205.975,150.734 221,191.5C 224.118,200.268 225.118,209.268 224,218.5C 222.954,220.09 221.787,221.59 220.5,223C 214.947,224.57 209.281,224.903 203.5,224C 170.317,216.993 146.484,198.159 132,167.5C 126.492,155.645 124.492,143.311 126,130.5C 128.109,127.878 130.609,125.878 133.5,124.5 Z"/></g>
<g><path style="opacity:1" fill="#ac0956" d="M 137.5,128.5 C 184.808,135.641 212.475,162.808 220.5,210C 220.687,213.441 219.687,216.441 217.5,219C 191.139,219.576 168.972,210.076 151,190.5C 138.63,175.75 131.13,158.75 128.5,139.5C 129.065,136.492 130.065,133.659 131.5,131C 133.611,130.155 135.611,129.322 137.5,128.5 Z"/></g>
<g><path style="opacity:0.908" fill="#0846ca" d="M 22.5,195.5 C 22.5,209.167 22.5,222.833 22.5,236.5C 20.9993,229.73 20.3326,222.73 20.5,215.5C 20.3083,208.596 20.975,201.93 22.5,195.5 Z"/></g>
<g><path style="opacity:0.972" fill="#052975" d="M 29.5,173.5 C 25.6807,201.917 30.8474,228.917 45,254.5C 74.7467,299.124 116.247,318.457 169.5,312.5C 161.812,316.089 153.812,318.756 145.5,320.5C 132.344,319.504 119.01,319.171 105.5,319.5C 66.9096,311.083 40.4096,288.417 26,251.5C 24.3575,246.598 23.1909,241.598 22.5,236.5C 22.5,222.833 22.5,209.167 22.5,195.5C 23.3058,187.587 25.6391,180.254 29.5,173.5 Z"/></g>
<g><path style="opacity:1" fill="#710639" d="M 207.5,153.5 C 201.706,148.877 196.039,144.044 190.5,139C 184.331,135.416 178.331,131.583 172.5,127.5C 164.859,124.728 157.192,122.062 149.5,119.5C 123.167,113.167 113.167,123.167 119.5,149.5C 128.089,180.852 146.422,204.685 174.5,221C 178.266,221.869 181.266,223.702 183.5,226.5C 171.945,222.391 161.278,216.724 151.5,209.5C 151.649,208.448 151.483,207.448 151,206.5C 143.19,200.697 136.856,193.697 132,185.5C 120.869,168.443 115.202,149.776 115,129.5C 119.422,117 128.255,112.167 141.5,115C 161.529,118.774 179.529,126.774 195.5,139C 199.865,143.643 203.865,148.477 207.5,153.5 Z"/></g>
<g><path style="opacity:0.005" fill="#000000" d="M 241.5,229.5 C 238.237,231.568 234.57,232.568 230.5,232.5C 230.5,232.167 230.5,231.833 230.5,231.5C 234.076,230.515 237.742,229.848 241.5,229.5 Z"/></g>
<g><path style="opacity:1" fill="#0745c5" d="M 93.5,115.5 C 70.5731,132.313 57.4064,154.98 54,183.5C 51.7444,228.845 70.911,261.345 111.5,281C 146.789,294.244 179.456,289.578 209.5,267C 215.057,261.264 220.39,256.097 225.5,251.5C 224.285,256.812 222.285,261.812 219.5,266.5C 214.714,269.739 210.047,273.239 205.5,277C 188.454,287.959 169.788,293.793 149.5,294.5C 105.985,292.776 74.8185,272.442 56,233.5C 40.7714,193.032 47.2714,156.532 75.5,124C 75.2716,123.601 74.9382,123.435 74.5,123.5C 80.2797,119.68 86.6131,117.013 93.5,115.5 Z"/></g>
<g><path style="opacity:1" fill="#063aa7" d="M 69.5,126.5 C 49.5143,150.025 41.681,177.692 46,209.5C 48.2692,227.697 55.6025,243.364 68,256.5C 68.3333,257.833 68.6667,259.167 69,260.5C 95.934,290.7 129.101,301.867 168.5,294C 176.136,291.873 183.802,289.873 191.5,288C 199.227,285.147 205.894,280.813 211.5,275C 212.448,274.517 213.448,274.351 214.5,274.5C 212.518,277.81 210.185,280.81 207.5,283.5C 196.808,289.675 185.475,294.508 173.5,298C 118.628,306.645 77.7943,286.812 51,238.5C 36.5384,202.568 38.7051,168.235 57.5,135.5C 60.9103,131.762 64.9103,128.762 69.5,126.5 Z"/></g>
<g><path style="opacity:0.925" fill="#0847c9" d="M 105.5,319.5 C 119.01,319.171 132.344,319.504 145.5,320.5C 139.017,321.018 132.517,321.351 126,321.5C 118.936,321.661 112.103,320.994 105.5,319.5 Z"/></g>
</svg>
